<svg id="visual" viewBox="0 0 1800 540" width="1800" height="540" xmlns="http://www.w3.org/2000/svg" xmlns:xlink="http://www.w3.org/1999/xlink" version="1.1"><path d="M0 363L257 348L514 369L771 329L1029 375L1286 332L1543 348L1800 341L1800 541L1543 541L1286 541L1029 541L771 541L514 541L257 541L0 541Z" fill="#dfecff"></path><path d="M0 377L257 406L514 414L771 401L1029 369L1286 361L1543 392L1800 408L1800 541L1543 541L1286 541L1029 541L771 541L514 541L257 541L0 541Z" fill="#e7f0ff"></path><path d="M0 405L257 423L514 422L771 401L1029 408L1286 422L1543 430L1800 447L1800 541L1543 541L1286 541L1029 541L771 541L514 541L257 541L0 541Z" fill="#eef4fe"></path><path d="M0 467L257 454L514 477L771 472L1029 475L1286 442L1543 460L1800 438L1800 541L1543 541L1286 541L1029 541L771 541L514 541L257 541L0 541Z" fill="#f6f8fe"></path><path d="M0 500L257 483L514 477L771 502L1029 490L1286 492L1543 509L1800 494L1800 541L1543 541L1286 541L1029 541L771 541L514 541L257 541L0 541Z" fill="#fdfdfd"></path></svg>